<svg width="30" height="30" viewBox="0 0 30 30" fill="none" xmlns="http://www.w3.org/2000/svg">
<g clip-path="url(#clip0_301_230)">
<path d="M0.893311 14.7233L2.59998 13.5283L7.85831 21.0375L6.15164 22.2325L0.893311 14.7233Z" fill="#42484C"/>
<path d="M3.24751 14.0906L1.20001 15.5248C1.1094 15.5792 1.00154 15.5972 0.898187 15.5751C0.794835 15.5531 0.703679 15.4927 0.643101 15.4061C0.582524 15.3196 0.557033 15.2132 0.571769 15.1086C0.586505 15.004 0.640372 14.9088 0.722507 14.8423L2.77001 13.4081C2.86062 13.3538 2.96847 13.3358 3.07183 13.3578C3.17518 13.3798 3.26634 13.4402 3.32691 13.5268C3.38749 13.6134 3.41298 13.7197 3.39824 13.8244C3.38351 13.929 3.32964 14.0242 3.24751 14.0906ZM8.71001 20.439L5.29667 22.829C5.20606 22.8833 5.09821 22.9013 4.99485 22.8793C4.8915 22.8573 4.80035 22.7969 4.73977 22.7103C4.67919 22.6237 4.6537 22.5174 4.66844 22.4128C4.68317 22.3081 4.73704 22.213 4.81917 22.1465L8.23251 19.7565C8.32312 19.7021 8.43097 19.6841 8.53433 19.7061C8.63768 19.7282 8.72884 19.7885 8.78941 19.8751C8.84999 19.9617 8.87548 20.068 8.86075 20.1727C8.84601 20.2773 8.79214 20.3725 8.71001 20.439Z" fill="#66757F"/>
<path d="M5.80918 22.4719L8.19918 20.7986L12.5 26.9427L10.1108 28.6161L5.80918 22.4719ZM1.84918 16.0886L3.55585 14.8936L4.03335 15.5769L2.32668 16.7711L1.84918 16.0886ZM2.80502 17.4536L4.51168 16.2586L4.98918 16.9419L3.28252 18.1369L2.80502 17.4536ZM3.76085 18.8194L5.46752 17.6244L5.94585 18.3077L4.23918 19.5027L3.76085 18.8194ZM4.71668 20.1852L6.42335 18.9902L6.90168 19.6727L5.19502 20.8677L4.71668 20.1852Z" fill="url(#paint0_linear_301_230)"/>
<path d="M19.4583 16.7832C19.4583 16.7832 22.7258 19.3682 21.3108 22.4999C21.3108 22.4999 17.5267 20.5682 19.4583 16.7832Z" fill="#292F33"/>
<path d="M21.6392 21.3278C21.7984 19.9628 21.1792 18.7737 20.5592 17.9528C20.1143 17.739 19.6489 17.5709 19.17 17.4512C19.1367 17.5437 19.1192 17.6303 19.0925 17.7212C19.2084 19.9203 20.5042 20.8995 21.6392 21.3278Z" fill="black"/>
<path d="M19.1666 16.667C19.1666 16.667 23.2541 17.4737 23.4266 20.9053C23.4266 20.9053 19.1775 20.9162 19.1666 16.667ZM26.6666 30.0003V28.3337C26.6666 25.572 24.4291 23.3337 21.6666 23.3337H8.33331C7.00723 23.3337 5.73546 23.8604 4.79778 24.7981C3.8601 25.7358 3.33331 27.0076 3.33331 28.3337V30.0003H26.6666Z" fill="url(#paint1_linear_301_230)"/>
<path d="M10.6658 22.293H19.335V25.8338H10.6658V22.293Z" fill="#292F33"/>
<path d="M11.6667 22.5H18.3334C18.3334 22.5 17.485 28.3333 15 28.3333C12.515 28.3333 11.6667 22.5 11.6667 22.5Z" fill="#292F33"/>
<path d="M11.3667 25.032C12.82 26.0887 13.74 26.6679 15 26.6679C16.26 26.6679 17.1792 26.0879 18.6325 25.032V20.2412H11.3658V25.032H11.3667Z" fill="#292F33"/>
<path d="M11.36 21.6445C12.3734 22.7895 13.63 23.0995 14.9967 23.0995C16.3625 23.0995 17.6184 22.7887 18.6325 21.6445V18.7354H11.3592V21.6445H11.36Z" fill="black"/>
<path d="M9.53666 13.2796C9.53666 14.4863 8.92499 15.4646 8.17083 15.4646C7.41666 15.4646 6.80499 14.4863 6.80499 13.2796C6.80499 12.0729 7.41666 11.0938 8.17083 11.0938C8.92499 11.0929 9.53666 12.0721 9.53666 13.2796ZM23.1942 13.2796C23.1942 14.4863 22.5833 15.4646 21.8283 15.4646C21.0742 15.4646 20.4625 14.4863 20.4625 13.2796C20.4625 12.0729 21.0733 11.0938 21.8283 11.0938C22.5833 11.0929 23.1942 12.0721 23.1942 13.2796Z" fill="#292F33"/>
<path d="M7.89752 13.7837C7.89752 7.50033 10 4.16699 15 4.16699C20 4.16699 22.1017 7.50033 22.1017 13.7837C22.1017 18.6345 18.9225 22.567 15 22.567C11.0775 22.567 7.89752 18.6345 7.89752 13.7837Z" fill="url(#paint2_linear_301_230)"/>
<path d="M9.16669 23.3333C9.16669 24.1666 10 25.8333 11.6667 27.4999C12.9842 28.8174 13.9325 29.9999 13.9325 29.9999C14.5967 29.9958 15.5159 29.9966 16.2075 29.9991C15.465 28.3158 14.1434 27.1066 13.475 26.4383C12.6417 25.6049 10.8334 24.1666 10.8334 22.4999C10.8334 21.6666 9.16669 23.3333 9.16669 23.3333Z" fill="#66757F"/>
<path d="M13.9325 30L16.2025 29.9991C15.7758 29.0316 15.16 28.2266 14.5858 27.585C14.1314 28.1407 13.7388 28.7443 13.415 29.385C13.7383 29.7591 13.9325 30 13.9325 30Z" fill="#292F33"/>
<path d="M20.8333 23.3333C20.8333 24.1666 20 25.8333 18.3333 27.4999C17.0158 28.8174 16.25 29.9999 16.25 29.9999C15.4983 29.9966 15.0683 29.9983 13.75 29.9999C14.4925 28.3166 15.8567 27.1066 16.525 26.4383C17.3583 25.6049 19.1667 24.1666 19.1667 22.4999C19.1667 21.6666 20.8333 23.3333 20.8333 23.3333Z" fill="#66757F"/>
<path d="M15 11.4257C12.5042 11.4257 8.23666 9.72241 9.11333 13.0757C9.62499 15.0324 10.2942 15.4766 12.0092 15.2474C13.7792 15.0116 13.6683 14.4007 14.9217 14.4007C16.175 14.4007 16.2217 15.0116 17.9917 15.2474C19.7067 15.4757 20.3758 15.0324 20.8875 13.0757C21.7633 9.72241 17.4958 11.4257 15 11.4257Z" fill="#FFDC5D"/>
<path d="M11.6666 14.167C11.2083 14.167 10.8333 13.792 10.8333 13.3337V12.5003C10.8333 12.042 11.2083 11.667 11.6666 11.667C12.125 11.667 12.5 12.042 12.5 12.5003V13.3337C12.5 13.792 12.125 14.167 11.6666 14.167ZM18.3333 14.167C17.875 14.167 17.5 13.792 17.5 13.3337V12.5003C17.5 12.042 17.875 11.667 18.3333 11.667C18.7916 11.667 19.1666 12.042 19.1666 12.5003V13.3337C19.1666 13.792 18.7916 14.167 18.3333 14.167Z" fill="#662113"/>
</g>
<defs>
<linearGradient id="paint0_linear_301_230" x1="7.1746" y1="14.8936" x2="7.1746" y2="28.6161" gradientUnits="userSpaceOnUse">
<stop stop-color="#64A5EB"/>
<stop offset="1" stop-color="#F27D15"/>
</linearGradient>
<linearGradient id="paint1_linear_301_230" x1="15" y1="16.667" x2="15" y2="30.0003" gradientUnits="userSpaceOnUse">
<stop stop-color="#64A5EB"/>
<stop offset="1" stop-color="#F27D15"/>
</linearGradient>
<linearGradient id="paint2_linear_301_230" x1="14.9996" y1="4.16699" x2="14.9996" y2="22.567" gradientUnits="userSpaceOnUse">
<stop stop-color="#64A5EB"/>
<stop offset="1" stop-color="#F27D15"/>
</linearGradient>
<clipPath id="clip0_301_230">
<rect width="30" height="30" fill="white"/>
</clipPath>
</defs>
</svg>
