<svg width="56" height="67" viewBox="0 0 56 67" fill="none" xmlns="http://www.w3.org/2000/svg">
<g opacity="0.5">
<path d="M54.9749 28.6134C54.8525 28.736 54.7071 28.8332 54.5471 28.8995C54.3871 28.9659 54.2155 29 54.0423 29C53.8691 29 53.6976 28.9659 53.5376 28.8995C53.3776 28.8332 53.2322 28.736 53.1098 28.6134L27.6806 3.18422L2.25137 28.6134C2.00404 28.8608 1.66859 28.9997 1.31882 28.9997C0.969047 28.9997 0.633601 28.8608 0.386274 28.6134C0.138947 28.3661 6.89486e-09 28.0307 0 27.6809C-6.89486e-09 27.3311 0.138946 26.9957 0.386273 26.7483L26.748 0.386576C26.8704 0.264025 27.0158 0.166803 27.1758 0.100472C27.3358 0.0341398 27.5074 0 27.6806 0C27.8538 0 28.0253 0.0341398 28.1853 0.100472C28.3453 0.166803 28.4907 0.264025 28.6131 0.386576L54.9749 26.7483C55.0974 26.8707 55.1946 27.0161 55.261 27.1761C55.3273 27.3361 55.3614 27.5077 55.3614 27.6809C55.3614 27.8541 55.3273 28.0256 55.261 28.1856C55.1946 28.3456 55.0974 28.491 54.9749 28.6134Z" fill="black"/>
<path d="M54.9749 47.6134C54.8525 47.736 54.7071 47.8332 54.5471 47.8995C54.3871 47.9659 54.2155 48 54.0423 48C53.8691 48 53.6976 47.9659 53.5376 47.8995C53.3776 47.8332 53.2322 47.736 53.1098 47.6134L27.6806 22.1842L2.25137 47.6134C2.00404 47.8608 1.66859 47.9997 1.31882 47.9997C0.969047 47.9997 0.633601 47.8608 0.386274 47.6134C0.138947 47.3661 6.89486e-09 47.0307 0 46.6809C-6.89486e-09 46.3311 0.138946 45.9957 0.386273 45.7483L26.748 19.3866C26.8704 19.264 27.0158 19.1668 27.1758 19.1005C27.3358 19.0341 27.5074 19 27.6806 19C27.8538 19 28.0253 19.0341 28.1853 19.1005C28.3453 19.1668 28.4907 19.264 28.6131 19.3866L54.9749 45.7483C55.0974 45.8707 55.1946 46.0161 55.261 46.1761C55.3273 46.3361 55.3614 46.5077 55.3614 46.6809C55.3614 46.8541 55.3273 47.0256 55.261 47.1856C55.1946 47.3456 55.0974 47.491 54.9749 47.6134Z" fill="black"/>
<path d="M54.9749 66.6134C54.8525 66.736 54.7071 66.8332 54.5471 66.8995C54.3871 66.9659 54.2155 67 54.0423 67C53.8691 67 53.6976 66.9659 53.5376 66.8995C53.3776 66.8332 53.2322 66.736 53.1098 66.6134L27.6806 41.1842L2.25137 66.6134C2.00404 66.8608 1.66859 66.9997 1.31882 66.9997C0.969047 66.9997 0.633601 66.8608 0.386274 66.6134C0.138947 66.3661 6.89486e-09 66.0307 0 65.6809C-6.89486e-09 65.3311 0.138946 64.9957 0.386273 64.7483L26.748 38.3866C26.8704 38.264 27.0158 38.1668 27.1758 38.1005C27.3358 38.0341 27.5074 38 27.6806 38C27.8538 38 28.0253 38.0341 28.1853 38.1005C28.3453 38.1668 28.4907 38.264 28.6131 38.3866L54.9749 64.7483C55.0974 64.8707 55.1946 65.0161 55.261 65.1761C55.3273 65.3361 55.3614 65.5077 55.3614 65.6809C55.3614 65.8541 55.3273 66.0256 55.261 66.1856C55.1946 66.3456 55.0974 66.491 54.9749 66.6134Z" fill="black"/>
</g>
</svg>
